<svg version="1.1" xmlns="http://www.w3.org/2000/svg" xmlns:xlink="http://www.w3.org/1999/xlink" width="919" height="756"><defs></defs><g><g transform="translate(-142,-30) scale(1,1)"><rect fill="#C0C0C0" stroke="none" x="159" y="47" width="87" height="39" opacity="0.2"></rect></g><g transform="translate(-142,-30) scale(1,1)"><rect fill="#ffffff" stroke="none" x="152" y="40" width="87" height="39"></rect></g><g transform="translate(-142,-30) scale(1,1)"><path fill="none" stroke="#000000" d="M 152 40 L 239 40 L 239 79 L 152 79 L 152 40 Z Z" stroke-miterlimit="10"></path></g><g transform="translate(-142,-30) scale(1,1)"><g><path fill="none" stroke="none"></path><text fill="#000000" stroke="none" font-family="Helvetica" font-size="13px" font-style="normal" font-weight="bold" text-decoration="none" x="182" y="59.5">User</text></g></g><g transform="translate(-142,-30) scale(1,1)"><path fill="none" stroke="#000000" d="M 196.5 80 L 196.5 772" stroke-miterlimit="10" stroke-dasharray="3"></path></g><g transform="translate(-142,-30) scale(1,1)"><rect fill="#C0C0C0" stroke="none" x="523" y="47" width="88" height="39" opacity="0.2"></rect></g><g transform="translate(-142,-30) scale(1,1)"><rect fill="#ffffff" stroke="none" x="516" y="40" width="88" height="39"></rect></g><g transform="translate(-142,-30) scale(1,1)"><path fill="none" stroke="#000000" d="M 516 40 L 604 40 L 604 79 L 516 79 L 516 40 Z Z" stroke-miterlimit="10"></path></g><g transform="translate(-142,-30) scale(1,1)"><g><path fill="none" stroke="none"></path><text fill="#000000" stroke="none" font-family="Helvetica" font-size="13px" font-style="normal" font-weight="bold" text-decoration="none" x="533" y="59.5">User App</text></g></g><g transform="translate(-142,-30) scale(1,1)"><path fill="none" stroke="#000000" d="M 561.5 80 L 561.5 776" stroke-miterlimit="10" stroke-dasharray="3"></path></g><g transform="translate(-142,-30) scale(1,1)"><rect fill="#C0C0C0" stroke="none" x="891" y="47" width="130" height="39" opacity="0.2"></rect></g><g transform="translate(-142,-30) scale(1,1)"><rect fill="#ffffff" stroke="none" x="884" y="40" width="130" height="39"></rect></g><g transform="translate(-142,-30) scale(1,1)"><path fill="none" stroke="#000000" d="M 884 40 L 1014 40 L 1014 79 L 884 79 L 884 40 Z Z" stroke-miterlimit="10"></path></g><g transform="translate(-142,-30) scale(1,1)"><g><path fill="none" stroke="none"></path><text fill="#000000" stroke="none" font-family="Helvetica" font-size="13px" font-style="normal" font-weight="bold" text-decoration="none" x="898" y="59.5">Account Manager</text></g></g><g transform="translate(-142,-30) scale(1,1)"><path fill="none" stroke="#000000" d="M 950.5 80 L 950.5 776" stroke-miterlimit="10" stroke-dasharray="3"></path></g><g transform="translate(-142,-30) scale(1,1)"><path fill="#ffffff" stroke="none" d="M 152 120 L 981 120 L 991 130 L 991 151 L 152 151 L 152 120"></path></g><g transform="translate(-142,-30) scale(1,1)"><path fill="none" stroke="#000000" d="M 152 120 L 981 120 L 991 130 L 991 151 L 152 151 L 152 120 L 152 120" stroke-miterlimit="10"></path></g><g transform="translate(-142,-30) scale(1,1)"><path fill="none" stroke="#000000" d="M 981 120 L 981 130 L 991 130 L 981 120" stroke-miterlimit="10"></path></g><g transform="translate(-142,-30) scale(1,1)"><g><path fill="none" stroke="none"></path><text fill="#000000" stroke="none" font-family="Helvetica" font-size="13px" font-style="normal" font-weight="normal" text-decoration="none" x="157" y="138">Pre condition</text></g></g><g transform="translate(-142,-30) scale(1,1)"><path fill="none" stroke="#000000" d="M 196 192 L 554 192" stroke-miterlimit="10"></path></g><g transform="translate(-142,-30) scale(1,1)"><path fill="#000000" stroke="none" d="M 543.8373251423759 196.209517756016 L 554 192 L 543.8373251423758 187.790482243984"></path></g><g transform="translate(-142,-30) scale(1,1)"><path fill="none" stroke="#000000" d="M 543.8373251423759 196.209517756016 L 554 192 L 543.8373251423758 187.790482243984 L 543.8373251423759 196.209517756016" stroke-miterlimit="10"></path></g><g transform="translate(-142,-30) scale(1,1)"><g><path fill="none" stroke="none"></path><text fill="#000000" stroke="none" font-family="Helvetica" font-size="13px" font-style="normal" font-weight="normal" text-decoration="none" x="233" y="189">1 : Add new account(email, password, nickname)</text></g></g><g transform="translate(-142,-30) scale(1,1)"><rect fill="#ffffff" stroke="none" x="554" y="192" width="13" height="28"></rect></g><g transform="translate(-142,-30) scale(1,1)"><path fill="none" stroke="#000000" d="M 554 192 L 567 192 L 567 220 L 554 220 L 554 192 Z Z" stroke-miterlimit="10"></path></g><g transform="translate(-142,-30) scale(1,1)"><path fill="none" stroke="#000000" d="M 561 236 L 943 236" stroke-miterlimit="10"></path></g><g transform="translate(-142,-30) scale(1,1)"><path fill="#000000" stroke="none" d="M 932.8373251423759 240.209517756016 L 943 236 L 932.8373251423758 231.790482243984"></path></g><g transform="translate(-142,-30) scale(1,1)"><path fill="none" stroke="#000000" d="M 932.8373251423759 240.209517756016 L 943 236 L 932.8373251423758 231.790482243984 L 932.8373251423759 240.209517756016" stroke-miterlimit="10"></path></g><g transform="translate(-142,-30) scale(1,1)"><g><path fill="none" stroke="none"></path><text fill="#000000" stroke="none" font-family="Helvetica" font-size="13px" font-style="normal" font-weight="normal" text-decoration="none" x="573" y="233">2 : Account Registration Request(email, password, nickname)</text></g></g><g transform="translate(-142,-30) scale(1,1)"><rect fill="#ffffff" stroke="none" x="943" y="236" width="13" height="28"></rect></g><g transform="translate(-142,-30) scale(1,1)"><path fill="none" stroke="#000000" d="M 943 236 L 956 236 L 956 264 L 943 264 L 943 236 Z Z" stroke-miterlimit="10"></path></g><g transform="translate(-142,-30) scale(1,1)"><path fill="none" stroke="#000000" d="M 950 308 L 561 308" stroke-miterlimit="10" stroke-dasharray="3"></path></g><g transform="translate(-142,-30) scale(1,1)"><path fill="none" stroke="#000000" d="M 571.1626748576241 303.790482243984 L 561 308 L 571.1626748576241 312.209517756016" stroke-miterlimit="10"></path></g><g transform="translate(-142,-30) scale(1,1)"><g><path fill="none" stroke="none"></path><text fill="#000000" stroke="none" font-family="Arial" font-size="13px" font-style="normal" font-weight="normal" text-decoration="none" x="698" y="325">3 : Registration Fail</text></g></g><g transform="translate(-142,-30) scale(1,1)"><path fill="none" stroke="#000000" d="M 950 372 L 561 372" stroke-miterlimit="10" stroke-dasharray="3"></path></g><g transform="translate(-142,-30) scale(1,1)"><path fill="none" stroke="#000000" d="M 571.1626748576241 367.790482243984 L 561 372 L 571.1626748576241 376.209517756016" stroke-miterlimit="10"></path></g><g transform="translate(-142,-30) scale(1,1)"><g><path fill="none" stroke="none"></path><text fill="#000000" stroke="none" font-family="Arial" font-size="13px" font-style="normal" font-weight="normal" text-decoration="none" x="683" y="389">4 : Registration Success</text></g></g><g transform="translate(-142,-30) scale(1,1)"><path fill="none" stroke="#000000" d="M 950 404 L 202 404" stroke-miterlimit="10"></path></g><g transform="translate(-142,-30) scale(1,1)"><path fill="#000000" stroke="none" d="M 212.16267485762415 399.790482243984 L 202 404 L 212.16267485762415 408.209517756016"></path></g><g transform="translate(-142,-30) scale(1,1)"><path fill="none" stroke="#000000" d="M 212.16267485762415 399.790482243984 L 202 404 L 212.16267485762415 408.209517756016 L 212.16267485762415 399.790482243984" stroke-miterlimit="10"></path></g><g transform="translate(-142,-30) scale(1,1)"><g><path fill="none" stroke="none"></path><text fill="#000000" stroke="none" font-family="Helvetica" font-size="13px" font-style="normal" font-weight="normal" text-decoration="none" x="474" y="421">5 : Account Activation Guide Email</text></g></g><g transform="translate(-142,-30) scale(1,1)"><rect fill="#ffffff" stroke="none" x="189" y="404" width="13" height="28"></rect></g><g transform="translate(-142,-30) scale(1,1)"><path fill="none" stroke="#000000" d="M 189 404 L 202 404 L 202 432 L 189 432 L 189 404 Z Z" stroke-miterlimit="10"></path></g><g transform="translate(-142,-30) scale(1,1)"><path fill="none" stroke="#000000" d="M 561 452 L 202 452" stroke-miterlimit="10"></path></g><g transform="translate(-142,-30) scale(1,1)"><path fill="#000000" stroke="none" d="M 212.16267485762415 447.790482243984 L 202 452 L 212.16267485762415 456.209517756016"></path></g><g transform="translate(-142,-30) scale(1,1)"><path fill="none" stroke="#000000" d="M 212.16267485762415 447.790482243984 L 202 452 L 212.16267485762415 456.209517756016 L 212.16267485762415 447.790482243984" stroke-miterlimit="10"></path></g><g transform="translate(-142,-30) scale(1,1)"><g><path fill="none" stroke="none"></path><text fill="#000000" stroke="none" font-family="Arial" font-size="13px" font-style="normal" font-weight="normal" text-decoration="none" x="298" y="473">6 : Account Activation Guide</text></g></g><g transform="translate(-142,-30) scale(1,1)"><rect fill="#ffffff" stroke="none" x="189" y="452" width="13" height="28"></rect></g><g transform="translate(-142,-30) scale(1,1)"><path fill="none" stroke="#000000" d="M 189 452 L 202 452 L 202 480 L 189 480 L 189 452 Z Z" stroke-miterlimit="10"></path></g><g transform="translate(-142,-30) scale(1,1)"><path fill="none" stroke="#000000" d="M 152 280 L 992 280 L 992 764 L 152 764 L 152 280" stroke-miterlimit="10"></path></g><g transform="translate(-142,-30) scale(1,1)"><path fill="#ffffff" stroke="none" d="M 152 280 L 152 302 L 264 302 L 275 291 L 275 280 L 152 280"></path></g><g transform="translate(-142,-30) scale(1,1)"><path fill="none" stroke="#000000" d="M 152 280 L 152 302 L 264 302 L 275 291 L 275 280 L 152 280 L 152 280" stroke-miterlimit="10"></path></g><g transform="translate(-142,-30) scale(1,1)"><g><path fill="none" stroke="none"></path><text fill="#000000" stroke="none" font-family="Arial" font-size="13px" font-style="normal" font-weight="normal" text-decoration="none" x="177" y="297.5">Account Exist</text></g></g><g transform="translate(-142,-30) scale(1,1)"><g><path fill="none" stroke="none"></path><text fill="#000000" stroke="none" font-family="Arial" font-size="13px" font-style="normal" font-weight="bold" text-decoration="none" x="157" y="297.5">alt</text></g></g><g transform="translate(-142,-30) scale(1,1)"><g><path fill="none" stroke="none"></path><text fill="#000000" stroke="none" font-family="Arial" font-size="13px" font-style="normal" font-weight="normal" text-decoration="none" x="171.5" y="330.5">[Yes]</text></g></g><g transform="translate(-142,-30) scale(1,1)"><path fill="none" stroke="#000000" d="M 152 346 L 992 346" stroke-miterlimit="10" stroke-dasharray="10,3"></path></g><g transform="translate(-142,-30) scale(1,1)"><g><path fill="none" stroke="none"></path><text fill="#000000" stroke="none" font-family="Arial" font-size="13px" font-style="normal" font-weight="normal" text-decoration="none" x="171.5" y="373.5">[No]</text></g></g><g transform="translate(-142,-30) scale(1,1)"><path fill="none" stroke="#000000" d="M 950 532 L 980 532 L 980 552 L 956 552" stroke-miterlimit="10"></path></g><g transform="translate(-142,-30) scale(1,1)"><path fill="#000000" stroke="none" d="M 966.1626748576241 547.790482243984 L 956 552 L 966.1626748576241 556.209517756016"></path></g><g transform="translate(-142,-30) scale(1,1)"><path fill="none" stroke="#000000" d="M 966.1626748576241 547.790482243984 L 956 552 L 966.1626748576241 556.209517756016 L 966.1626748576241 547.790482243984" stroke-miterlimit="10"></path></g><g transform="translate(-142,-30) scale(1,1)"><g><path fill="none" stroke="none"></path><text fill="#000000" stroke="none" font-family="Arial" font-size="13px" font-style="normal" font-weight="normal" text-decoration="none" x="927" y="548">7 : Activation Timeout</text></g></g><g transform="translate(-142,-30) scale(1,1)"><rect fill="#ffffff" stroke="none" x="943" y="552" width="13" height="28"></rect></g><g transform="translate(-142,-30) scale(1,1)"><path fill="none" stroke="#000000" d="M 943 552 L 956 552 L 956 580 L 943 580 L 943 552 Z Z" stroke-miterlimit="10"></path></g><g transform="translate(-142,-30) scale(1,1)"><path fill="none" stroke="#000000" d="M 196 640 L 943 640" stroke-miterlimit="10"></path></g><g transform="translate(-142,-30) scale(1,1)"><path fill="#000000" stroke="none" d="M 932.8373251423759 644.209517756016 L 943 640 L 932.8373251423758 635.790482243984"></path></g><g transform="translate(-142,-30) scale(1,1)"><path fill="none" stroke="#000000" d="M 932.8373251423759 644.209517756016 L 943 640 L 932.8373251423758 635.790482243984 L 932.8373251423759 644.209517756016" stroke-miterlimit="10"></path></g><g transform="translate(-142,-30) scale(1,1)"><g><path fill="none" stroke="none"></path><text fill="#000000" stroke="none" font-family="Arial" font-size="13px" font-style="normal" font-weight="normal" text-decoration="none" x="480" y="637">8 : Account Activation Request</text></g></g><g transform="translate(-142,-30) scale(1,1)"><rect fill="#ffffff" stroke="none" x="943" y="640" width="13" height="28"></rect></g><g transform="translate(-142,-30) scale(1,1)"><path fill="none" stroke="#000000" d="M 943 640 L 956 640 L 956 668 L 943 668 L 943 640 Z Z" stroke-miterlimit="10"></path></g><g transform="translate(-142,-30) scale(1,1)"><path fill="none" stroke="#000000" d="M 160 496 L 980 496 L 980 752 L 160 752 L 160 496" stroke-miterlimit="10"></path></g><g transform="translate(-142,-30) scale(1,1)"><path fill="#ffffff" stroke="none" d="M 160 496 L 160 518 L 296 518 L 307 507 L 307 496 L 160 496"></path></g><g transform="translate(-142,-30) scale(1,1)"><path fill="none" stroke="#000000" d="M 160 496 L 160 518 L 296 518 L 307 507 L 307 496 L 160 496 L 160 496" stroke-miterlimit="10"></path></g><g transform="translate(-142,-30) scale(1,1)"><g><path fill="none" stroke="none"></path><text fill="#000000" stroke="none" font-family="Arial" font-size="13px" font-style="normal" font-weight="normal" text-decoration="none" x="185" y="513.5">Activation Timeout</text></g></g><g transform="translate(-142,-30) scale(1,1)"><g><path fill="none" stroke="none"></path><text fill="#000000" stroke="none" font-family="Arial" font-size="13px" font-style="normal" font-weight="bold" text-decoration="none" x="165" y="513.5">alt</text></g></g><g transform="translate(-142,-30) scale(1,1)"><g><path fill="none" stroke="none"></path><text fill="#000000" stroke="none" font-family="Arial" font-size="13px" font-style="normal" font-weight="normal" text-decoration="none" x="179.5" y="546.5">[Yes]</text></g></g><g transform="translate(-142,-30) scale(1,1)"><path fill="none" stroke="#000000" d="M 160 609 L 980 609" stroke-miterlimit="10" stroke-dasharray="10,3"></path></g><g transform="translate(-142,-30) scale(1,1)"><g><path fill="none" stroke="none"></path><text fill="#000000" stroke="none" font-family="Arial" font-size="13px" font-style="normal" font-weight="normal" text-decoration="none" x="179.5" y="636.5">[No]</text></g></g><g transform="translate(-142,-30) scale(1,1)"><path fill="none" stroke="#000000" d="M 950 684 L 980 684 L 980 704 L 956 704" stroke-miterlimit="10"></path></g><g transform="translate(-142,-30) scale(1,1)"><path fill="#000000" stroke="none" d="M 966.1626748576241 699.790482243984 L 956 704 L 966.1626748576241 708.209517756016"></path></g><g transform="translate(-142,-30) scale(1,1)"><path fill="none" stroke="#000000" d="M 966.1626748576241 699.790482243984 L 956 704 L 966.1626748576241 708.209517756016 L 966.1626748576241 699.790482243984" stroke-miterlimit="10"></path></g><g transform="translate(-142,-30) scale(1,1)"><g><path fill="none" stroke="none"></path><text fill="#000000" stroke="none" font-family="Arial" font-size="13px" font-style="normal" font-weight="normal" text-decoration="none" x="927" y="700">9 : Account Activated</text></g></g><g transform="translate(-142,-30) scale(1,1)"><rect fill="#ffffff" stroke="none" x="943" y="704" width="13" height="28"></rect></g><g transform="translate(-142,-30) scale(1,1)"><path fill="none" stroke="#000000" d="M 943 704 L 956 704 L 956 732 L 943 732 L 943 704 Z Z" stroke-miterlimit="10"></path></g></g></svg>