<svg version="1.1" xmlns="http://www.w3.org/2000/svg" xmlns:xlink="http://www.w3.org/1999/xlink" width="1086" height="1289"><defs></defs><g><g transform="translate(-190,-30) scale(1,1)"><rect fill="#C0C0C0" stroke="none" x="207" y="47" width="87" height="39" opacity="0.2"></rect></g><g transform="translate(-190,-30) scale(1,1)"><rect fill="#ffffff" stroke="none" x="200" y="40" width="87" height="39"></rect></g><g transform="translate(-190,-30) scale(1,1)"><path fill="none" stroke="#000000" d="M 200 40 L 287 40 L 287 79 L 200 79 L 200 40 Z Z" stroke-miterlimit="10"></path></g><g transform="translate(-190,-30) scale(1,1)"><g><path fill="none" stroke="none"></path><text fill="#000000" stroke="none" font-family="Helvetica" font-size="13px" font-style="normal" font-weight="bold" text-decoration="none" x="230" y="59.5">User</text></g></g><g transform="translate(-190,-30) scale(1,1)"><path fill="none" stroke="#000000" d="M 244.5 80 L 244.5 1144" stroke-miterlimit="10" stroke-dasharray="3"></path></g><g transform="translate(-190,-30) scale(1,1)"><rect fill="#C0C0C0" stroke="none" x="457" y="47" width="88" height="39" opacity="0.2"></rect></g><g transform="translate(-190,-30) scale(1,1)"><rect fill="#ffffff" stroke="none" x="450" y="40" width="88" height="39"></rect></g><g transform="translate(-190,-30) scale(1,1)"><path fill="none" stroke="#000000" d="M 450 40 L 538 40 L 538 79 L 450 79 L 450 40 Z Z" stroke-miterlimit="10"></path></g><g transform="translate(-190,-30) scale(1,1)"><g><path fill="none" stroke="none"></path><text fill="#000000" stroke="none" font-family="Helvetica" font-size="13px" font-style="normal" font-weight="bold" text-decoration="none" x="467" y="59.5">User App</text></g></g><g transform="translate(-190,-30) scale(1,1)"><path fill="none" stroke="#000000" d="M 495.5 80 L 495.5 1309" stroke-miterlimit="10" stroke-dasharray="3"></path></g><g transform="translate(-190,-30) scale(1,1)"><rect fill="#C0C0C0" stroke="none" x="708" y="47" width="131" height="39" opacity="0.2"></rect></g><g transform="translate(-190,-30) scale(1,1)"><rect fill="#ffffff" stroke="none" x="701" y="40" width="131" height="39"></rect></g><g transform="translate(-190,-30) scale(1,1)"><path fill="none" stroke="#000000" d="M 701 40 L 832 40 L 832 79 L 701 79 L 701 40 Z Z" stroke-miterlimit="10"></path></g><g transform="translate(-190,-30) scale(1,1)"><g><path fill="none" stroke="none"></path><text fill="#000000" stroke="none" font-family="Helvetica" font-size="13px" font-style="normal" font-weight="bold" text-decoration="none" x="715.5" y="59.5">Account Manager</text></g></g><g transform="translate(-190,-30) scale(1,1)"><path fill="none" stroke="#000000" d="M 767.5 80 L 767.5 1309" stroke-miterlimit="10" stroke-dasharray="3"></path></g><g transform="translate(-190,-30) scale(1,1)"><rect fill="#C0C0C0" stroke="none" x="955" y="47" width="82" height="39" opacity="0.2"></rect></g><g transform="translate(-190,-30) scale(1,1)"><rect fill="#ffffff" stroke="none" x="948" y="40" width="82" height="39"></rect></g><g transform="translate(-190,-30) scale(1,1)"><path fill="none" stroke="#000000" d="M 948 40 L 1030 40 L 1030 79 L 948 79 L 948 40 Z Z" stroke-miterlimit="10"></path></g><g transform="translate(-190,-30) scale(1,1)"><g><path fill="none" stroke="none"></path><text fill="#000000" stroke="none" font-family="Helvetica" font-size="13px" font-style="normal" font-weight="bold" text-decoration="none" x="959.5" y="59.5">Event Bus</text></g></g><g transform="translate(-190,-30) scale(1,1)"><path fill="none" stroke="#000000" d="M 990.5 80 L 990.5 1287" stroke-miterlimit="10" stroke-dasharray="3"></path></g><g transform="translate(-190,-30) scale(1,1)"><rect fill="#C0C0C0" stroke="none" x="1199" y="47" width="74" height="39" opacity="0.2"></rect></g><g transform="translate(-190,-30) scale(1,1)"><rect fill="#ffffff" stroke="none" x="1192" y="40" width="74" height="39"></rect></g><g transform="translate(-190,-30) scale(1,1)"><path fill="none" stroke="#000000" d="M 1192 40 L 1266 40 L 1266 79 L 1192 79 L 1192 40 Z Z" stroke-miterlimit="10"></path></g><g transform="translate(-190,-30) scale(1,1)"><g><path fill="none" stroke="none"></path><text fill="#000000" stroke="none" font-family="Arial" font-size="13px" font-style="normal" font-weight="bold" text-decoration="none" x="1204" y="59.5">SA node</text></g></g><g transform="translate(-190,-30) scale(1,1)"><path fill="none" stroke="#000000" d="M 1230.5 80 L 1230.5 944" stroke-miterlimit="10" stroke-dasharray="3"></path></g><g transform="translate(-190,-30) scale(1,1)"><path fill="none" stroke="#000000" d="M 244 120 L 488 120" stroke-miterlimit="10"></path></g><g transform="translate(-190,-30) scale(1,1)"><path fill="#000000" stroke="none" d="M 477.83732514237585 124.20951775601598 L 488 120 L 477.83732514237585 115.79048224398402"></path></g><g transform="translate(-190,-30) scale(1,1)"><path fill="none" stroke="#000000" d="M 477.83732514237585 124.20951775601598 L 488 120 L 477.83732514237585 115.79048224398402 L 477.83732514237585 124.20951775601598" stroke-miterlimit="10"></path></g><g transform="translate(-190,-30) scale(1,1)"><g><path fill="none" stroke="none"></path><text fill="#000000" stroke="none" font-family="Helvetica" font-size="13px" font-style="normal" font-weight="normal" text-decoration="none" x="318" y="117">1 : ID, Password</text></g></g><g transform="translate(-190,-30) scale(1,1)"><rect fill="#ffffff" stroke="none" x="488" y="120" width="13" height="28"></rect></g><g transform="translate(-190,-30) scale(1,1)"><path fill="none" stroke="#000000" d="M 488 120 L 501 120 L 501 148 L 488 148 L 488 120 Z Z" stroke-miterlimit="10"></path></g><g transform="translate(-190,-30) scale(1,1)"><path fill="none" stroke="#000000" d="M 495 176 L 760 176" stroke-miterlimit="10"></path></g><g transform="translate(-190,-30) scale(1,1)"><path fill="#000000" stroke="none" d="M 749.8373251423759 180.209517756016 L 760 176 L 749.8373251423758 171.790482243984"></path></g><g transform="translate(-190,-30) scale(1,1)"><path fill="none" stroke="#000000" d="M 749.8373251423759 180.209517756016 L 760 176 L 749.8373251423758 171.790482243984 L 749.8373251423759 180.209517756016" stroke-miterlimit="10"></path></g><g transform="translate(-190,-30) scale(1,1)"><g><path fill="none" stroke="none"></path><text fill="#000000" stroke="none" font-family="Helvetica" font-size="13px" font-style="normal" font-weight="normal" text-decoration="none" x="545" y="168">2 : Authentication Request</text></g></g><g transform="translate(-190,-30) scale(1,1)"><rect fill="#ffffff" stroke="none" x="760" y="176" width="13" height="28"></rect></g><g transform="translate(-190,-30) scale(1,1)"><path fill="none" stroke="#000000" d="M 760 176 L 773 176 L 773 204 L 760 204 L 760 176 Z Z" stroke-miterlimit="10"></path></g><g transform="translate(-190,-30) scale(1,1)"><path fill="none" stroke="#000000" d="M 767 232 L 501 232" stroke-miterlimit="10"></path></g><g transform="translate(-190,-30) scale(1,1)"><path fill="#000000" stroke="none" d="M 511.16267485762415 227.790482243984 L 501 232 L 511.16267485762415 236.209517756016"></path></g><g transform="translate(-190,-30) scale(1,1)"><path fill="none" stroke="#000000" d="M 511.16267485762415 227.790482243984 L 501 232 L 511.16267485762415 236.209517756016 L 511.16267485762415 227.790482243984" stroke-miterlimit="10"></path></g><g transform="translate(-190,-30) scale(1,1)"><g><path fill="none" stroke="none"></path><text fill="#000000" stroke="none" font-family="Helvetica" font-size="13px" font-style="normal" font-weight="normal" text-decoration="none" x="573" y="249">3 : SessionID = ABC</text></g></g><g transform="translate(-190,-30) scale(1,1)"><rect fill="#ffffff" stroke="none" x="488" y="232" width="13" height="28"></rect></g><g transform="translate(-190,-30) scale(1,1)"><path fill="none" stroke="#000000" d="M 488 232 L 501 232 L 501 260 L 488 260 L 488 232 Z Z" stroke-miterlimit="10"></path></g><g transform="translate(-190,-30) scale(1,1)"><path fill="none" stroke="#000000" d="M 495 284 L 983 284" stroke-miterlimit="10"></path></g><g transform="translate(-190,-30) scale(1,1)"><path fill="#000000" stroke="none" d="M 972.8373251423759 288.209517756016 L 983 284 L 972.8373251423758 279.790482243984"></path></g><g transform="translate(-190,-30) scale(1,1)"><path fill="none" stroke="#000000" d="M 972.8373251423759 288.209517756016 L 983 284 L 972.8373251423758 279.790482243984 L 972.8373251423759 288.209517756016" stroke-miterlimit="10"></path></g><g transform="translate(-190,-30) scale(1,1)"><g><path fill="none" stroke="none"></path><text fill="#000000" stroke="none" font-family="Arial" font-size="13px" font-style="normal" font-weight="normal" text-decoration="none" x="554" y="280">4 : InitSubscribe (SessionID=ABC, )</text></g></g><g transform="translate(-190,-30) scale(1,1)"><rect fill="#ffffff" stroke="none" x="983" y="284" width="13" height="28"></rect></g><g transform="translate(-190,-30) scale(1,1)"><path fill="none" stroke="#000000" d="M 983 284 L 996 284 L 996 312 L 983 312 L 983 284 Z Z" stroke-miterlimit="10"></path></g><g transform="translate(-190,-30) scale(1,1)"><path fill="none" stroke="#000000" d="M 990 336 L 501 336" stroke-miterlimit="10"></path></g><g transform="translate(-190,-30) scale(1,1)"><path fill="#000000" stroke="none" d="M 511.16267485762415 331.790482243984 L 501 336 L 511.16267485762415 340.209517756016"></path></g><g transform="translate(-190,-30) scale(1,1)"><path fill="none" stroke="#000000" d="M 511.16267485762415 331.790482243984 L 501 336 L 511.16267485762415 340.209517756016 L 511.16267485762415 331.790482243984" stroke-miterlimit="10"></path></g><g transform="translate(-190,-30) scale(1,1)"><g><path fill="none" stroke="none"></path><text fill="#000000" stroke="none" font-family="Arial" font-size="13px" font-style="normal" font-weight="normal" text-decoration="none" x="709" y="353">5 : Success</text></g></g><g transform="translate(-190,-30) scale(1,1)"><rect fill="#ffffff" stroke="none" x="488" y="336" width="13" height="28"></rect></g><g transform="translate(-190,-30) scale(1,1)"><path fill="none" stroke="#000000" d="M 488 336 L 501 336 L 501 364 L 488 364 L 488 336 Z Z" stroke-miterlimit="10"></path></g><g transform="translate(-190,-30) scale(1,1)"><path fill="none" stroke="#000000" d="M 495 388 L 760 388" stroke-miterlimit="10"></path></g><g transform="translate(-190,-30) scale(1,1)"><path fill="#000000" stroke="none" d="M 749.8373251423759 392.209517756016 L 760 388 L 749.8373251423758 383.790482243984"></path></g><g transform="translate(-190,-30) scale(1,1)"><path fill="none" stroke="#000000" d="M 749.8373251423759 392.209517756016 L 760 388 L 749.8373251423758 383.790482243984 L 749.8373251423759 392.209517756016" stroke-miterlimit="10"></path></g><g transform="translate(-190,-30) scale(1,1)"><g><path fill="none" stroke="none"></path><text fill="#000000" stroke="none" font-family="Arial" font-size="13px" font-style="normal" font-weight="normal" text-decoration="none" x="581" y="385">6 : Get node list</text></g></g><g transform="translate(-190,-30) scale(1,1)"><rect fill="#ffffff" stroke="none" x="760" y="388" width="13" height="28"></rect></g><g transform="translate(-190,-30) scale(1,1)"><path fill="none" stroke="#000000" d="M 760 388 L 773 388 L 773 416 L 760 416 L 760 388 Z Z" stroke-miterlimit="10"></path></g><g transform="translate(-190,-30) scale(1,1)"><path fill="none" stroke="#000000" d="M 767 432 L 501 432" stroke-miterlimit="10"></path></g><g transform="translate(-190,-30) scale(1,1)"><path fill="#000000" stroke="none" d="M 511.16267485762415 427.790482243984 L 501 432 L 511.16267485762415 436.209517756016"></path></g><g transform="translate(-190,-30) scale(1,1)"><path fill="none" stroke="#000000" d="M 511.16267485762415 427.790482243984 L 501 432 L 511.16267485762415 436.209517756016 L 511.16267485762415 427.790482243984" stroke-miterlimit="10"></path></g><g transform="translate(-190,-30) scale(1,1)"><g><path fill="none" stroke="none"></path><text fill="#000000" stroke="none" font-family="Arial" font-size="13px" font-style="normal" font-weight="normal" text-decoration="none" x="572" y="449">7 : Respond node list</text></g></g><g transform="translate(-190,-30) scale(1,1)"><rect fill="#ffffff" stroke="none" x="488" y="432" width="13" height="28"></rect></g><g transform="translate(-190,-30) scale(1,1)"><path fill="none" stroke="#000000" d="M 488 432 L 501 432 L 501 460 L 488 460 L 488 432 Z Z" stroke-miterlimit="10"></path></g><g transform="translate(-190,-30) scale(1,1)"><path fill="none" stroke="#000000" d="M 495 476 L 250 476" stroke-miterlimit="10"></path></g><g transform="translate(-190,-30) scale(1,1)"><path fill="#000000" stroke="none" d="M 260.16267485762415 471.790482243984 L 250 476 L 260.16267485762415 480.209517756016"></path></g><g transform="translate(-190,-30) scale(1,1)"><path fill="none" stroke="#000000" d="M 260.16267485762415 471.790482243984 L 250 476 L 260.16267485762415 480.209517756016 L 260.16267485762415 471.790482243984" stroke-miterlimit="10"></path></g><g transform="translate(-190,-30) scale(1,1)"><g><path fill="none" stroke="none"></path><text fill="#000000" stroke="none" font-family="Arial" font-size="13px" font-style="normal" font-weight="normal" text-decoration="none" x="279" y="493">8 : Success, Show SA node list</text></g></g><g transform="translate(-190,-30) scale(1,1)"><rect fill="#ffffff" stroke="none" x="237" y="476" width="13" height="28"></rect></g><g transform="translate(-190,-30) scale(1,1)"><path fill="none" stroke="#000000" d="M 237 476 L 250 476 L 250 504 L 237 504 L 237 476 Z Z" stroke-miterlimit="10"></path></g><g transform="translate(-190,-30) scale(1,1)"><path fill="none" stroke="#000000" d="M 244 564 L 488 564" stroke-miterlimit="10"></path></g><g transform="translate(-190,-30) scale(1,1)"><path fill="#000000" stroke="none" d="M 477.83732514237585 568.209517756016 L 488 564 L 477.83732514237585 559.790482243984"></path></g><g transform="translate(-190,-30) scale(1,1)"><path fill="none" stroke="#000000" d="M 477.83732514237585 568.209517756016 L 488 564 L 477.83732514237585 559.790482243984 L 477.83732514237585 568.209517756016" stroke-miterlimit="10"></path></g><g transform="translate(-190,-30) scale(1,1)"><g><path fill="none" stroke="none"></path><text fill="#000000" stroke="none" font-family="Arial" font-size="13px" font-style="normal" font-weight="normal" text-decoration="none" x="303" y="532">9 : Read temperature</text></g></g><g transform="translate(-190,-30) scale(1,1)"><rect fill="#ffffff" stroke="none" x="488" y="564" width="13" height="28"></rect></g><g transform="translate(-190,-30) scale(1,1)"><path fill="none" stroke="#000000" d="M 488 564 L 501 564 L 501 592 L 488 592 L 488 564 Z Z" stroke-miterlimit="10"></path></g><g transform="translate(-190,-30) scale(1,1)"><path fill="none" stroke="#000000" d="M 495 620 L 983 620" stroke-miterlimit="10"></path></g><g transform="translate(-190,-30) scale(1,1)"><path fill="#000000" stroke="none" d="M 972.8373251423759 624.209517756016 L 983 620 L 972.8373251423758 615.790482243984"></path></g><g transform="translate(-190,-30) scale(1,1)"><path fill="none" stroke="#000000" d="M 972.8373251423759 624.209517756016 L 983 620 L 972.8373251423758 615.790482243984 L 972.8373251423759 624.209517756016" stroke-miterlimit="10"></path></g><g transform="translate(-190,-30) scale(1,1)"><g><path fill="none" stroke="none"></path><text fill="#000000" stroke="none" font-family="Arial" font-size="13px" font-style="normal" font-weight="normal" text-decoration="none" x="638" y="617">10 : Publish( /sanode/0001/control)</text></g></g><g transform="translate(-190,-30) scale(1,1)"><rect fill="#ffffff" stroke="none" x="983" y="620" width="13" height="28"></rect></g><g transform="translate(-190,-30) scale(1,1)"><path fill="none" stroke="#000000" d="M 983 620 L 996 620 L 996 648 L 983 648 L 983 620 Z Z" stroke-miterlimit="10"></path></g><g transform="translate(-190,-30) scale(1,1)"><path fill="none" stroke="#000000" d="M 990 680 L 1223 680" stroke-miterlimit="10"></path></g><g transform="translate(-190,-30) scale(1,1)"><path fill="#000000" stroke="none" d="M 1212.837325142376 684.209517756016 L 1223 680 L 1212.837325142376 675.790482243984"></path></g><g transform="translate(-190,-30) scale(1,1)"><path fill="none" stroke="#000000" d="M 1212.837325142376 684.209517756016 L 1223 680 L 1212.837325142376 675.790482243984 L 1212.837325142376 684.209517756016" stroke-miterlimit="10"></path></g><g transform="translate(-190,-30) scale(1,1)"><g><path fill="none" stroke="none"></path><text fill="#000000" stroke="none" font-family="Arial" font-size="13px" font-style="normal" font-weight="normal" text-decoration="none" x="998" y="677">11 : Subscribe( /sanode/0001/control)</text></g></g><g transform="translate(-190,-30) scale(1,1)"><rect fill="#ffffff" stroke="none" x="1223" y="680" width="13" height="68"></rect></g><g transform="translate(-190,-30) scale(1,1)"><path fill="none" stroke="#000000" d="M 1223 680 L 1236 680 L 1236 748 L 1223 748 L 1223 680 Z Z" stroke-miterlimit="10"></path></g><g transform="translate(-190,-30) scale(1,1)"><path fill="none" stroke="#000000" d="M 1230 760 L 996 760" stroke-miterlimit="10"></path></g><g transform="translate(-190,-30) scale(1,1)"><path fill="#000000" stroke="none" d="M 1006.1626748576241 755.790482243984 L 996 760 L 1006.1626748576241 764.209517756016"></path></g><g transform="translate(-190,-30) scale(1,1)"><path fill="none" stroke="#000000" d="M 1006.1626748576241 755.790482243984 L 996 760 L 1006.1626748576241 764.209517756016 L 1006.1626748576241 755.790482243984" stroke-miterlimit="10"></path></g><g transform="translate(-190,-30) scale(1,1)"><g><path fill="none" stroke="none"></path><text fill="#000000" stroke="none" font-family="Arial" font-size="13px" font-style="normal" font-weight="normal" text-decoration="none" x="1011" y="777">12 : Publish(  /sanode/0001/status)</text></g></g><g transform="translate(-190,-30) scale(1,1)"><rect fill="#ffffff" stroke="none" x="983" y="760" width="13" height="28"></rect></g><g transform="translate(-190,-30) scale(1,1)"><path fill="none" stroke="#000000" d="M 983 760 L 996 760 L 996 788 L 983 788 L 983 760 Z Z" stroke-miterlimit="10"></path></g><g transform="translate(-190,-30) scale(1,1)"><path fill="none" stroke="#000000" d="M 990 812 L 501 812" stroke-miterlimit="10"></path></g><g transform="translate(-190,-30) scale(1,1)"><path fill="#000000" stroke="none" d="M 511.16267485762415 807.790482243984 L 501 812 L 511.16267485762415 816.209517756016"></path></g><g transform="translate(-190,-30) scale(1,1)"><path fill="none" stroke="#000000" d="M 511.16267485762415 807.790482243984 L 501 812 L 511.16267485762415 816.209517756016 L 511.16267485762415 807.790482243984" stroke-miterlimit="10"></path></g><g transform="translate(-190,-30) scale(1,1)"><g><path fill="none" stroke="none"></path><text fill="#000000" stroke="none" font-family="Arial" font-size="13px" font-style="normal" font-weight="normal" text-decoration="none" x="637" y="829">13 : Subscribe( /sanode/0001/status)</text></g></g><g transform="translate(-190,-30) scale(1,1)"><rect fill="#ffffff" stroke="none" x="488" y="812" width="13" height="28"></rect></g><g transform="translate(-190,-30) scale(1,1)"><path fill="none" stroke="#000000" d="M 488 812 L 501 812 L 501 840 L 488 840 L 488 812 Z Z" stroke-miterlimit="10"></path></g><g transform="translate(-190,-30) scale(1,1)"><path fill="none" stroke="#000000" d="M 495 860 L 250 860" stroke-miterlimit="10"></path></g><g transform="translate(-190,-30) scale(1,1)"><path fill="#000000" stroke="none" d="M 260.16267485762415 855.790482243984 L 250 860 L 260.16267485762415 864.209517756016"></path></g><g transform="translate(-190,-30) scale(1,1)"><path fill="none" stroke="#000000" d="M 260.16267485762415 855.790482243984 L 250 860 L 260.16267485762415 864.209517756016 L 260.16267485762415 855.790482243984" stroke-miterlimit="10"></path></g><g transform="translate(-190,-30) scale(1,1)"><g><path fill="none" stroke="none"></path><text fill="#000000" stroke="none" font-family="Arial" font-size="13px" font-style="normal" font-weight="normal" text-decoration="none" x="306" y="877">14 : Show temperature</text></g></g><g transform="translate(-190,-30) scale(1,1)"><rect fill="#ffffff" stroke="none" x="237" y="860" width="13" height="28"></rect></g><g transform="translate(-190,-30) scale(1,1)"><path fill="none" stroke="#000000" d="M 237 860 L 250 860 L 250 888 L 237 888 L 237 860 Z Z" stroke-miterlimit="10"></path></g></g></svg>