<svg version="1.1" xmlns="http://www.w3.org/2000/svg" xmlns:xlink="http://www.w3.org/1999/xlink" width="850" height="1289"><defs></defs><g><g transform="translate(-190,-30) scale(1,1)"><rect fill="#C0C0C0" stroke="none" x="207" y="47" width="87" height="39" opacity="0.2"></rect></g><g transform="translate(-190,-30) scale(1,1)"><rect fill="#ffffff" stroke="none" x="200" y="40" width="87" height="39"></rect></g><g transform="translate(-190,-30) scale(1,1)"><path fill="none" stroke="#000000" d="M 200 40 L 287 40 L 287 79 L 200 79 L 200 40 Z Z" stroke-miterlimit="10"></path></g><g transform="translate(-190,-30) scale(1,1)"><g><path fill="none" stroke="none"></path><text fill="#000000" stroke="none" font-family="Helvetica" font-size="13px" font-style="normal" font-weight="bold" text-decoration="none" x="230" y="59.5">User</text></g></g><g transform="translate(-190,-30) scale(1,1)"><path fill="none" stroke="#000000" d="M 244.5 80 L 244.5 1256" stroke-miterlimit="10" stroke-dasharray="3"></path></g><g transform="translate(-190,-30) scale(1,1)"><rect fill="#C0C0C0" stroke="none" x="457" y="47" width="88" height="39" opacity="0.2"></rect></g><g transform="translate(-190,-30) scale(1,1)"><rect fill="#ffffff" stroke="none" x="450" y="40" width="88" height="39"></rect></g><g transform="translate(-190,-30) scale(1,1)"><path fill="none" stroke="#000000" d="M 450 40 L 538 40 L 538 79 L 450 79 L 450 40 Z Z" stroke-miterlimit="10"></path></g><g transform="translate(-190,-30) scale(1,1)"><g><path fill="none" stroke="none"></path><text fill="#000000" stroke="none" font-family="Helvetica" font-size="13px" font-style="normal" font-weight="bold" text-decoration="none" x="467" y="59.5">User App</text></g></g><g transform="translate(-190,-30) scale(1,1)"><path fill="none" stroke="#000000" d="M 495.5 80 L 495.5 1309" stroke-miterlimit="10" stroke-dasharray="3"></path></g><g transform="translate(-190,-30) scale(1,1)"><rect fill="#C0C0C0" stroke="none" x="708" y="47" width="84" height="39" opacity="0.2"></rect></g><g transform="translate(-190,-30) scale(1,1)"><rect fill="#ffffff" stroke="none" x="701" y="40" width="84" height="39"></rect></g><g transform="translate(-190,-30) scale(1,1)"><path fill="none" stroke="#000000" d="M 701 40 L 785 40 L 785 79 L 701 79 L 701 40 Z Z" stroke-miterlimit="10"></path></g><g transform="translate(-190,-30) scale(1,1)"><g><path fill="none" stroke="none"></path><text fill="#000000" stroke="none" font-family="Helvetica" font-size="13px" font-style="normal" font-weight="bold" text-decoration="none" x="725" y="59.5">Server</text></g></g><g transform="translate(-190,-30) scale(1,1)"><path fill="none" stroke="#000000" d="M 744.5 80 L 744.5 1309" stroke-miterlimit="10" stroke-dasharray="3"></path></g><g transform="translate(-190,-30) scale(1,1)"><rect fill="#C0C0C0" stroke="none" x="955" y="47" width="82" height="39" opacity="0.2"></rect></g><g transform="translate(-190,-30) scale(1,1)"><rect fill="#ffffff" stroke="none" x="948" y="40" width="82" height="39"></rect></g><g transform="translate(-190,-30) scale(1,1)"><path fill="none" stroke="#000000" d="M 948 40 L 1030 40 L 1030 79 L 948 79 L 948 40 Z Z" stroke-miterlimit="10"></path></g><g transform="translate(-190,-30) scale(1,1)"><g><path fill="none" stroke="none"></path><text fill="#000000" stroke="none" font-family="Helvetica" font-size="13px" font-style="normal" font-weight="bold" text-decoration="none" x="964" y="59.5">SA node</text></g></g><g transform="translate(-190,-30) scale(1,1)"><path fill="none" stroke="#000000" d="M 990.5 80 L 990.5 1287" stroke-miterlimit="10" stroke-dasharray="3"></path></g><g transform="translate(-190,-30) scale(1,1)"><path fill="#ffffff" stroke="none" d="M 200 100 L 1000 100 L 1010 110 L 1010 176 L 200 176 L 200 100"></path></g><g transform="translate(-190,-30) scale(1,1)"><path fill="none" stroke="#000000" d="M 200 100 L 1000 100 L 1010 110 L 1010 176 L 200 176 L 200 100 L 200 100" stroke-miterlimit="10"></path></g><g transform="translate(-190,-30) scale(1,1)"><path fill="none" stroke="#000000" d="M 1000 100 L 1000 110 L 1010 110 L 1000 100" stroke-miterlimit="10"></path></g><g transform="translate(-190,-30) scale(1,1)"><g><path fill="none" stroke="none"></path><text fill="#000000" stroke="none" font-family="Helvetica" font-size="13px" font-style="normal" font-weight="normal" text-decoration="none" x="205" y="118">Pre condition</text></g></g><g transform="translate(-190,-30) scale(1,1)"><g><path fill="none" stroke="none"></path><text fill="#000000" stroke="none" font-family="Helvetica" font-size="13px" font-style="normal" font-weight="normal" text-decoration="none" x="205" y="133">  1. User is aware of the S/N(Serial number) of SA node</text></g></g><g transform="translate(-190,-30) scale(1,1)"><g><path fill="none" stroke="none"></path><text fill="#000000" stroke="none" font-family="Helvetica" font-size="13px" font-style="normal" font-weight="normal" text-decoration="none" x="205" y="148">  2. Use can manipulate the SA node to register</text></g></g><g transform="translate(-190,-30) scale(1,1)"><g><path fill="none" stroke="none"></path><text fill="#000000" stroke="none" font-family="Helvetica" font-size="13px" font-style="normal" font-weight="normal" text-decoration="none" x="205" y="163">  3. SA node is not connected to the Server</text></g></g><g transform="translate(-190,-30) scale(1,1)"><path fill="#ffffff" stroke="none" d="M 224 708 L 504 708 L 514 718 L 514 758 L 224 758 L 224 708"></path></g><g transform="translate(-190,-30) scale(1,1)"><path fill="none" stroke="#000000" d="M 224 708 L 504 708 L 514 718 L 514 758 L 224 758 L 224 708 L 224 708" stroke-miterlimit="10"></path></g><g transform="translate(-190,-30) scale(1,1)"><path fill="none" stroke="#000000" d="M 504 708 L 504 718 L 514 718 L 504 708" stroke-miterlimit="10"></path></g><g transform="translate(-190,-30) scale(1,1)"><g><path fill="none" stroke="none"></path><text fill="#000000" stroke="none" font-family="Arial" font-size="13px" font-style="normal" font-weight="normal" text-decoration="none" x="229" y="726">Notify user to manipulate SA node in 5 minutes</text></g></g><g transform="translate(-190,-30) scale(1,1)"><g><path fill="none" stroke="none"></path><text fill="#000000" stroke="none" font-family="Arial" font-size="13px" font-style="normal" font-weight="normal" text-decoration="none" x="281" y="598">Enter  S/N of new SA node</text></g></g><g transform="translate(-190,-30) scale(1,1)"><path fill="none" stroke="#000000" d="M 200 192 L 1007 192 L 1007 456 L 200 456 L 200 192" stroke-miterlimit="10"></path></g><g transform="translate(-190,-30) scale(1,1)"><path fill="#ffffff" stroke="none" d="M 200 192 L 200 214 L 322 214 L 333 203 L 333 192 L 200 192"></path></g><g transform="translate(-190,-30) scale(1,1)"><path fill="none" stroke="#000000" d="M 200 192 L 200 214 L 322 214 L 333 203 L 333 192 L 200 192 L 200 192" stroke-miterlimit="10"></path></g><g transform="translate(-190,-30) scale(1,1)"><g><path fill="none" stroke="none"></path><text fill="#000000" stroke="none" font-family="Arial" font-size="13px" font-style="normal" font-weight="normal" text-decoration="none" x="229" y="209.5">Log in success</text></g></g><g transform="translate(-190,-30) scale(1,1)"><g><path fill="none" stroke="none"></path><text fill="#000000" stroke="none" font-family="Arial" font-size="13px" font-style="normal" font-weight="bold" text-decoration="none" x="205" y="209.5">opt</text></g></g><g transform="translate(-190,-30) scale(1,1)"><path fill="none" stroke="#000000" d="M 244 236 L 488 236" stroke-miterlimit="10"></path></g><g transform="translate(-190,-30) scale(1,1)"><path fill="#000000" stroke="none" d="M 477.83732514237585 240.209517756016 L 488 236 L 477.83732514237585 231.790482243984"></path></g><g transform="translate(-190,-30) scale(1,1)"><path fill="none" stroke="#000000" d="M 477.83732514237585 240.209517756016 L 488 236 L 477.83732514237585 231.790482243984 L 477.83732514237585 240.209517756016" stroke-miterlimit="10"></path></g><g transform="translate(-190,-30) scale(1,1)"><g><path fill="none" stroke="none"></path><text fill="#000000" stroke="none" font-family="Helvetica" font-size="13px" font-style="normal" font-weight="normal" text-decoration="none" x="316" y="233">1 : Run User App</text></g></g><g transform="translate(-190,-30) scale(1,1)"><rect fill="#ffffff" stroke="none" x="488" y="236" width="13" height="28"></rect></g><g transform="translate(-190,-30) scale(1,1)"><path fill="none" stroke="#000000" d="M 488 236 L 501 236 L 501 264 L 488 264 L 488 236 Z Z" stroke-miterlimit="10"></path></g><g transform="translate(-190,-30) scale(1,1)"><path fill="none" stroke="#000000" d="M 495 272 L 737 272" stroke-miterlimit="10"></path></g><g transform="translate(-190,-30) scale(1,1)"><path fill="#000000" stroke="none" d="M 726.8373251423759 276.209517756016 L 737 272 L 726.8373251423758 267.790482243984"></path></g><g transform="translate(-190,-30) scale(1,1)"><path fill="none" stroke="#000000" d="M 726.8373251423759 276.209517756016 L 737 272 L 726.8373251423758 267.790482243984 L 726.8373251423759 276.209517756016" stroke-miterlimit="10"></path></g><g transform="translate(-190,-30) scale(1,1)"><g><path fill="none" stroke="none"></path><text fill="#000000" stroke="none" font-family="Helvetica" font-size="13px" font-style="normal" font-weight="normal" text-decoration="none" x="548" y="269">2 : Connection Request</text></g></g><g transform="translate(-190,-30) scale(1,1)"><rect fill="#ffffff" stroke="none" x="737" y="272" width="13" height="28"></rect></g><g transform="translate(-190,-30) scale(1,1)"><path fill="none" stroke="#000000" d="M 737 272 L 750 272 L 750 300 L 737 300 L 737 272 Z Z" stroke-miterlimit="10"></path></g><g transform="translate(-190,-30) scale(1,1)"><path fill="none" stroke="#000000" d="M 744 308 L 501 308" stroke-miterlimit="10"></path></g><g transform="translate(-190,-30) scale(1,1)"><path fill="#000000" stroke="none" d="M 511.16267485762415 303.790482243984 L 501 308 L 511.16267485762415 312.209517756016"></path></g><g transform="translate(-190,-30) scale(1,1)"><path fill="none" stroke="#000000" d="M 511.16267485762415 303.790482243984 L 501 308 L 511.16267485762415 312.209517756016 L 511.16267485762415 303.790482243984" stroke-miterlimit="10"></path></g><g transform="translate(-190,-30) scale(1,1)"><g><path fill="none" stroke="none"></path><text fill="#000000" stroke="none" font-family="Helvetica" font-size="13px" font-style="normal" font-weight="normal" text-decoration="none" x="548" y="325">3 : Connection Response</text></g></g><g transform="translate(-190,-30) scale(1,1)"><rect fill="#ffffff" stroke="none" x="488" y="308" width="13" height="28"></rect></g><g transform="translate(-190,-30) scale(1,1)"><path fill="none" stroke="#000000" d="M 488 308 L 501 308 L 501 336 L 488 336 L 488 308 Z Z" stroke-miterlimit="10"></path></g><g transform="translate(-190,-30) scale(1,1)"><path fill="none" stroke="#000000" d="M 244 344 L 488 344" stroke-miterlimit="10"></path></g><g transform="translate(-190,-30) scale(1,1)"><path fill="#000000" stroke="none" d="M 477.83732514237585 348.209517756016 L 488 344 L 477.83732514237585 339.790482243984"></path></g><g transform="translate(-190,-30) scale(1,1)"><path fill="none" stroke="#000000" d="M 477.83732514237585 348.209517756016 L 488 344 L 477.83732514237585 339.790482243984 L 477.83732514237585 348.209517756016" stroke-miterlimit="10"></path></g><g transform="translate(-190,-30) scale(1,1)"><g><path fill="none" stroke="none"></path><text fill="#000000" stroke="none" font-family="Helvetica" font-size="13px" font-style="normal" font-weight="normal" text-decoration="none" x="318" y="341">4 : ID, Password</text></g></g><g transform="translate(-190,-30) scale(1,1)"><rect fill="#ffffff" stroke="none" x="488" y="344" width="13" height="28"></rect></g><g transform="translate(-190,-30) scale(1,1)"><path fill="none" stroke="#000000" d="M 488 344 L 501 344 L 501 372 L 488 372 L 488 344 Z Z" stroke-miterlimit="10"></path></g><g transform="translate(-190,-30) scale(1,1)"><path fill="none" stroke="#000000" d="M 495 380 L 737 380" stroke-miterlimit="10"></path></g><g transform="translate(-190,-30) scale(1,1)"><path fill="#000000" stroke="none" d="M 726.8373251423759 384.209517756016 L 737 380 L 726.8373251423758 375.790482243984"></path></g><g transform="translate(-190,-30) scale(1,1)"><path fill="none" stroke="#000000" d="M 726.8373251423759 384.209517756016 L 737 380 L 726.8373251423758 375.790482243984 L 726.8373251423759 384.209517756016" stroke-miterlimit="10"></path></g><g transform="translate(-190,-30) scale(1,1)"><g><path fill="none" stroke="none"></path><text fill="#000000" stroke="none" font-family="Helvetica" font-size="13px" font-style="normal" font-weight="normal" text-decoration="none" x="534" y="372">5 : Authentication Request</text></g></g><g transform="translate(-190,-30) scale(1,1)"><rect fill="#ffffff" stroke="none" x="737" y="380" width="13" height="28"></rect></g><g transform="translate(-190,-30) scale(1,1)"><path fill="none" stroke="#000000" d="M 737 380 L 750 380 L 750 408 L 737 408 L 737 380 Z Z" stroke-miterlimit="10"></path></g><g transform="translate(-190,-30) scale(1,1)"><path fill="none" stroke="#000000" d="M 744 416 L 501 416" stroke-miterlimit="10"></path></g><g transform="translate(-190,-30) scale(1,1)"><path fill="#000000" stroke="none" d="M 511.16267485762415 411.790482243984 L 501 416 L 511.16267485762415 420.209517756016"></path></g><g transform="translate(-190,-30) scale(1,1)"><path fill="none" stroke="#000000" d="M 511.16267485762415 411.790482243984 L 501 416 L 511.16267485762415 420.209517756016 L 511.16267485762415 411.790482243984" stroke-miterlimit="10"></path></g><g transform="translate(-190,-30) scale(1,1)"><g><path fill="none" stroke="none"></path><text fill="#000000" stroke="none" font-family="Helvetica" font-size="13px" font-style="normal" font-weight="normal" text-decoration="none" x="543" y="433">6 : Authentication Success</text></g></g><g transform="translate(-190,-30) scale(1,1)"><rect fill="#ffffff" stroke="none" x="488" y="416" width="13" height="28"></rect></g><g transform="translate(-190,-30) scale(1,1)"><path fill="none" stroke="#000000" d="M 488 416 L 501 416 L 501 444 L 488 444 L 488 416 Z Z" stroke-miterlimit="10"></path></g><g transform="translate(-190,-30) scale(1,1)"><path fill="none" stroke="#000000" d="M 495 488 L 737 488" stroke-miterlimit="10"></path></g><g transform="translate(-190,-30) scale(1,1)"><path fill="#000000" stroke="none" d="M 726.8373251423759 492.209517756016 L 737 488 L 726.8373251423758 483.790482243984"></path></g><g transform="translate(-190,-30) scale(1,1)"><path fill="none" stroke="#000000" d="M 726.8373251423759 492.209517756016 L 737 488 L 726.8373251423758 483.790482243984 L 726.8373251423759 492.209517756016" stroke-miterlimit="10"></path></g><g transform="translate(-190,-30) scale(1,1)"><g><path fill="none" stroke="none"></path><text fill="#000000" stroke="none" font-family="Arial" font-size="13px" font-style="normal" font-weight="normal" text-decoration="none" x="545" y="485">7 : Request SA node list</text></g></g><g transform="translate(-190,-30) scale(1,1)"><rect fill="#ffffff" stroke="none" x="737" y="488" width="13" height="28"></rect></g><g transform="translate(-190,-30) scale(1,1)"><path fill="none" stroke="#000000" d="M 737 488 L 750 488 L 750 516 L 737 516 L 737 488 Z Z" stroke-miterlimit="10"></path></g><g transform="translate(-190,-30) scale(1,1)"><path fill="none" stroke="#000000" d="M 744 532 L 501 532" stroke-miterlimit="10"></path></g><g transform="translate(-190,-30) scale(1,1)"><path fill="#000000" stroke="none" d="M 511.16267485762415 527.790482243984 L 501 532 L 511.16267485762415 536.209517756016"></path></g><g transform="translate(-190,-30) scale(1,1)"><path fill="none" stroke="#000000" d="M 511.16267485762415 527.790482243984 L 501 532 L 511.16267485762415 536.209517756016 L 511.16267485762415 527.790482243984" stroke-miterlimit="10"></path></g><g transform="translate(-190,-30) scale(1,1)"><g><path fill="none" stroke="none"></path><text fill="#000000" stroke="none" font-family="Arial" font-size="13px" font-style="normal" font-weight="normal" text-decoration="none" x="545" y="549">8 : Response SA node list</text></g></g><g transform="translate(-190,-30) scale(1,1)"><rect fill="#ffffff" stroke="none" x="488" y="532" width="13" height="28"></rect></g><g transform="translate(-190,-30) scale(1,1)"><path fill="none" stroke="#000000" d="M 488 532 L 501 532 L 501 560 L 488 560 L 488 532 Z Z" stroke-miterlimit="10"></path></g><g transform="translate(-190,-30) scale(1,1)"><path fill="none" stroke="#000000" d="M 244 580 L 488 580" stroke-miterlimit="10"></path></g><g transform="translate(-190,-30) scale(1,1)"><path fill="#000000" stroke="none" d="M 477.83732514237585 584.209517756016 L 488 580 L 477.83732514237585 575.790482243984"></path></g><g transform="translate(-190,-30) scale(1,1)"><path fill="none" stroke="#000000" d="M 477.83732514237585 584.209517756016 L 488 580 L 477.83732514237585 575.790482243984 L 477.83732514237585 584.209517756016" stroke-miterlimit="10"></path></g><g transform="translate(-190,-30) scale(1,1)"><g><path fill="none" stroke="none"></path><text fill="#000000" stroke="none" font-family="Arial" font-size="13px" font-style="normal" font-weight="normal" text-decoration="none" x="263" y="577">9 : Select  menu "SA node register"</text></g></g><g transform="translate(-190,-30) scale(1,1)"><rect fill="#ffffff" stroke="none" x="488" y="580" width="13" height="28"></rect></g><g transform="translate(-190,-30) scale(1,1)"><path fill="none" stroke="#000000" d="M 488 580 L 501 580 L 501 608 L 488 608 L 488 580 Z Z" stroke-miterlimit="10"></path></g><g transform="translate(-190,-30) scale(1,1)"><path fill="none" stroke="#000000" d="M 495 624 L 737 624" stroke-miterlimit="10"></path></g><g transform="translate(-190,-30) scale(1,1)"><path fill="#000000" stroke="none" d="M 726.8373251423759 628.209517756016 L 737 624 L 726.8373251423758 619.790482243984"></path></g><g transform="translate(-190,-30) scale(1,1)"><path fill="none" stroke="#000000" d="M 726.8373251423759 628.209517756016 L 737 624 L 726.8373251423758 619.790482243984 L 726.8373251423759 628.209517756016" stroke-miterlimit="10"></path></g><g transform="translate(-190,-30) scale(1,1)"><g><path fill="none" stroke="none"></path><text fill="#000000" stroke="none" font-family="Arial" font-size="13px" font-style="normal" font-weight="normal" text-decoration="none" x="523" y="613">10 : Request SA node registration</text></g></g><g transform="translate(-190,-30) scale(1,1)"><rect fill="#ffffff" stroke="none" x="737" y="624" width="13" height="28"></rect></g><g transform="translate(-190,-30) scale(1,1)"><path fill="none" stroke="#000000" d="M 737 624 L 750 624 L 750 652 L 737 652 L 737 624 Z Z" stroke-miterlimit="10"></path></g><g transform="translate(-190,-30) scale(1,1)"><path fill="none" stroke="#000000" d="M 744 664 L 501 664" stroke-miterlimit="10"></path></g><g transform="translate(-190,-30) scale(1,1)"><path fill="#000000" stroke="none" d="M 511.16267485762415 659.790482243984 L 501 664 L 511.16267485762415 668.209517756016"></path></g><g transform="translate(-190,-30) scale(1,1)"><path fill="none" stroke="#000000" d="M 511.16267485762415 659.790482243984 L 501 664 L 511.16267485762415 668.209517756016 L 511.16267485762415 659.790482243984" stroke-miterlimit="10"></path></g><g transform="translate(-190,-30) scale(1,1)"><g><path fill="none" stroke="none"></path><text fill="#000000" stroke="none" font-family="Arial" font-size="13px" font-style="normal" font-weight="normal" text-decoration="none" x="515" y="681">11 : Request to manipulate SA Node</text></g></g><g transform="translate(-190,-30) scale(1,1)"><rect fill="#ffffff" stroke="none" x="488" y="664" width="13" height="28"></rect></g><g transform="translate(-190,-30) scale(1,1)"><path fill="none" stroke="#000000" d="M 488 664 L 501 664 L 501 692 L 488 692 L 488 664 Z Z" stroke-miterlimit="10"></path></g><g transform="translate(-190,-30) scale(1,1)"><path fill="none" stroke="#000000" d="M 244 788 L 983 788" stroke-miterlimit="10"></path></g><g transform="translate(-190,-30) scale(1,1)"><path fill="#000000" stroke="none" d="M 972.8373251423759 792.209517756016 L 983 788 L 972.8373251423758 783.790482243984"></path></g><g transform="translate(-190,-30) scale(1,1)"><path fill="none" stroke="#000000" d="M 972.8373251423759 792.209517756016 L 983 788 L 972.8373251423758 783.790482243984 L 972.8373251423759 792.209517756016" stroke-miterlimit="10"></path></g><g transform="translate(-190,-30) scale(1,1)"><g><path fill="none" stroke="none"></path><text fill="#000000" stroke="none" font-family="Arial" font-size="13px" font-style="normal" font-weight="normal" text-decoration="none" x="540" y="781">12 : Manipulate  SA node</text></g></g><g transform="translate(-190,-30) scale(1,1)"><rect fill="#ffffff" stroke="none" x="983" y="788" width="13" height="28"></rect></g><g transform="translate(-190,-30) scale(1,1)"><path fill="none" stroke="#000000" d="M 983 788 L 996 788 L 996 816 L 983 816 L 983 788 Z Z" stroke-miterlimit="10"></path></g><g transform="translate(-190,-30) scale(1,1)"><path fill="none" stroke="#000000" d="M 990 840 L 750 840" stroke-miterlimit="10"></path></g><g transform="translate(-190,-30) scale(1,1)"><path fill="#000000" stroke="none" d="M 760.1626748576241 835.790482243984 L 750 840 L 760.1626748576241 844.209517756016"></path></g><g transform="translate(-190,-30) scale(1,1)"><path fill="none" stroke="#000000" d="M 760.1626748576241 835.790482243984 L 750 840 L 760.1626748576241 844.209517756016 L 760.1626748576241 835.790482243984" stroke-miterlimit="10"></path></g><g transform="translate(-190,-30) scale(1,1)"><g><path fill="none" stroke="none"></path><text fill="#000000" stroke="none" font-family="Arial" font-size="13px" font-style="normal" font-weight="normal" text-decoration="none" x="798" y="857">13 : Connection Request</text></g></g><g transform="translate(-190,-30) scale(1,1)"><rect fill="#ffffff" stroke="none" x="737" y="840" width="13" height="28"></rect></g><g transform="translate(-190,-30) scale(1,1)"><path fill="none" stroke="#000000" d="M 737 840 L 750 840 L 750 868 L 737 868 L 737 840 Z Z" stroke-miterlimit="10"></path></g><g transform="translate(-190,-30) scale(1,1)"><path fill="none" stroke="#000000" d="M 744 884 L 983 884" stroke-miterlimit="10"></path></g><g transform="translate(-190,-30) scale(1,1)"><path fill="#000000" stroke="none" d="M 972.8373251423759 888.209517756016 L 983 884 L 972.8373251423758 879.790482243984"></path></g><g transform="translate(-190,-30) scale(1,1)"><path fill="none" stroke="#000000" d="M 972.8373251423759 888.209517756016 L 983 884 L 972.8373251423758 879.790482243984 L 972.8373251423759 888.209517756016" stroke-miterlimit="10"></path></g><g transform="translate(-190,-30) scale(1,1)"><g><path fill="none" stroke="none"></path><text fill="#000000" stroke="none" font-family="Arial" font-size="13px" font-style="normal" font-weight="normal" text-decoration="none" x="787" y="900">14 : Connection Response</text></g></g><g transform="translate(-190,-30) scale(1,1)"><rect fill="#ffffff" stroke="none" x="983" y="884" width="13" height="28"></rect></g><g transform="translate(-190,-30) scale(1,1)"><path fill="none" stroke="#000000" d="M 983 884 L 996 884 L 996 912 L 983 912 L 983 884 Z Z" stroke-miterlimit="10"></path></g><g transform="translate(-190,-30) scale(1,1)"><path fill="none" stroke="#000000" d="M 990 928 L 750 928" stroke-miterlimit="10"></path></g><g transform="translate(-190,-30) scale(1,1)"><path fill="#000000" stroke="none" d="M 760.1626748576241 923.790482243984 L 750 928 L 760.1626748576241 932.209517756016"></path></g><g transform="translate(-190,-30) scale(1,1)"><path fill="none" stroke="#000000" d="M 760.1626748576241 923.790482243984 L 750 928 L 760.1626748576241 932.209517756016 L 760.1626748576241 923.790482243984" stroke-miterlimit="10"></path></g><g transform="translate(-190,-30) scale(1,1)"><g><path fill="none" stroke="none"></path><text fill="#000000" stroke="none" font-family="Arial" font-size="13px" font-style="normal" font-weight="normal" text-decoration="none" x="828" y="945">15 : Send S/N</text></g></g><g transform="translate(-190,-30) scale(1,1)"><rect fill="#ffffff" stroke="none" x="737" y="928" width="13" height="28"></rect></g><g transform="translate(-190,-30) scale(1,1)"><path fill="none" stroke="#000000" d="M 737 928 L 750 928 L 750 956 L 737 956 L 737 928 Z Z" stroke-miterlimit="10"></path></g><g transform="translate(-190,-30) scale(1,1)"><path fill="none" stroke="#000000" d="M 200 964 L 1008 964 L 1008 1177 L 200 1177 L 200 964" stroke-miterlimit="10"></path></g><g transform="translate(-190,-30) scale(1,1)"><path fill="#ffffff" stroke="none" d="M 200 964 L 200 986 L 317 986 L 328 975 L 328 964 L 200 964"></path></g><g transform="translate(-190,-30) scale(1,1)"><path fill="none" stroke="#000000" d="M 200 964 L 200 986 L 317 986 L 328 975 L 328 964 L 200 964 L 200 964" stroke-miterlimit="10"></path></g><g transform="translate(-190,-30) scale(1,1)"><g><path fill="none" stroke="none"></path><text fill="#000000" stroke="none" font-family="Arial" font-size="13px" font-style="normal" font-weight="normal" text-decoration="none" x="225" y="981.5">S/N is not valid</text></g></g><g transform="translate(-190,-30) scale(1,1)"><g><path fill="none" stroke="none"></path><text fill="#000000" stroke="none" font-family="Arial" font-size="13px" font-style="normal" font-weight="bold" text-decoration="none" x="205" y="981.5">alt</text></g></g><g transform="translate(-190,-30) scale(1,1)"><g><path fill="none" stroke="none"></path><text fill="#000000" stroke="none" font-family="Arial" font-size="13px" font-style="normal" font-weight="normal" text-decoration="none" x="219.5" y="1014.5">[Yes]</text></g></g><g transform="translate(-190,-30) scale(1,1)"><path fill="none" stroke="#000000" d="M 200 1065 L 1008 1065" stroke-miterlimit="10" stroke-dasharray="10,3"></path></g><g transform="translate(-190,-30) scale(1,1)"><g><path fill="none" stroke="none"></path><text fill="#000000" stroke="none" font-family="Arial" font-size="13px" font-style="normal" font-weight="normal" text-decoration="none" x="219.5" y="1092.5">[No]</text></g></g><g transform="translate(-190,-30) scale(1,1)"><path fill="none" stroke="#000000" d="M 744 984 L 983 984" stroke-miterlimit="10"></path></g><g transform="translate(-190,-30) scale(1,1)"><path fill="#000000" stroke="none" d="M 972.8373251423759 988.209517756016 L 983 984 L 972.8373251423758 979.790482243984"></path></g><g transform="translate(-190,-30) scale(1,1)"><path fill="none" stroke="#000000" d="M 972.8373251423759 988.209517756016 L 983 984 L 972.8373251423758 979.790482243984 L 972.8373251423759 988.209517756016" stroke-miterlimit="10"></path></g><g transform="translate(-190,-30) scale(1,1)"><g><path fill="none" stroke="none"></path><text fill="#000000" stroke="none" font-family="Arial" font-size="13px" font-style="normal" font-weight="normal" text-decoration="none" x="818" y="981">16 : Disconnect</text></g></g><g transform="translate(-190,-30) scale(1,1)"><rect fill="#ffffff" stroke="none" x="983" y="984" width="13" height="38"></rect></g><g transform="translate(-190,-30) scale(1,1)"><path fill="none" stroke="#000000" d="M 983 984 L 996 984 L 996 1022 L 983 1022 L 983 984 Z Z" stroke-miterlimit="10"></path></g><g transform="translate(-190,-30) scale(1,1)"><path fill="none" stroke="#000000" d="M 744 1000 L 501 1000" stroke-miterlimit="10"></path></g><g transform="translate(-190,-30) scale(1,1)"><path fill="#000000" stroke="none" d="M 511.16267485762415 995.790482243984 L 501 1000 L 511.16267485762415 1004.209517756016"></path></g><g transform="translate(-190,-30) scale(1,1)"><path fill="none" stroke="#000000" d="M 511.16267485762415 995.790482243984 L 501 1000 L 511.16267485762415 1004.209517756016 L 511.16267485762415 995.790482243984" stroke-miterlimit="10"></path></g><g transform="translate(-190,-30) scale(1,1)"><g><path fill="none" stroke="none"></path><text fill="#000000" stroke="none" font-family="Arial" font-size="13px" font-style="normal" font-weight="normal" text-decoration="none" x="557" y="1017">17 : Registration failed</text></g></g><g transform="translate(-190,-30) scale(1,1)"><rect fill="#ffffff" stroke="none" x="488" y="1000" width="13" height="50"></rect></g><g transform="translate(-190,-30) scale(1,1)"><path fill="none" stroke="#000000" d="M 488 1000 L 501 1000 L 501 1050 L 488 1050 L 488 1000 Z Z" stroke-miterlimit="10"></path></g><g transform="translate(-190,-30) scale(1,1)"><path fill="none" stroke="#000000" d="M 744 1084 L 983 1084" stroke-miterlimit="10"></path></g><g transform="translate(-190,-30) scale(1,1)"><path fill="#000000" stroke="none" d="M 972.8373251423759 1088.2095177560159 L 983 1084 L 972.8373251423758 1079.7904822439841"></path></g><g transform="translate(-190,-30) scale(1,1)"><path fill="none" stroke="#000000" d="M 972.8373251423759 1088.2095177560159 L 983 1084 L 972.8373251423758 1079.7904822439841 L 972.8373251423759 1088.2095177560159" stroke-miterlimit="10"></path></g><g transform="translate(-190,-30) scale(1,1)"><g><path fill="none" stroke="none"></path><text fill="#000000" stroke="none" font-family="Arial" font-size="13px" font-style="normal" font-weight="normal" text-decoration="none" x="799" y="1081">18 : Activate SA Node</text></g></g><g transform="translate(-190,-30) scale(1,1)"><rect fill="#ffffff" stroke="none" x="983" y="1084" width="13" height="41"></rect></g><g transform="translate(-190,-30) scale(1,1)"><path fill="none" stroke="#000000" d="M 983 1084 L 996 1084 L 996 1125 L 983 1125 L 983 1084 Z Z" stroke-miterlimit="10"></path></g><g transform="translate(-190,-30) scale(1,1)"><path fill="none" stroke="#000000" d="M 744 1108 L 501 1108" stroke-miterlimit="10"></path></g><g transform="translate(-190,-30) scale(1,1)"><path fill="#000000" stroke="none" d="M 511.16267485762415 1103.7904822439841 L 501 1108 L 511.16267485762415 1112.2095177560159"></path></g><g transform="translate(-190,-30) scale(1,1)"><path fill="none" stroke="#000000" d="M 511.16267485762415 1103.7904822439841 L 501 1108 L 511.16267485762415 1112.2095177560159 L 511.16267485762415 1103.7904822439841" stroke-miterlimit="10"></path></g><g transform="translate(-190,-30) scale(1,1)"><g><path fill="none" stroke="none"></path><text fill="#000000" stroke="none" font-family="Arial" font-size="13px" font-style="normal" font-weight="normal" text-decoration="none" x="545" y="1125">19 : Registration complete</text></g></g><g transform="translate(-190,-30) scale(1,1)"><rect fill="#ffffff" stroke="none" x="488" y="1108" width="13" height="53"></rect></g><g transform="translate(-190,-30) scale(1,1)"><path fill="none" stroke="#000000" d="M 488 1108 L 501 1108 L 501 1161 L 488 1161 L 488 1108 Z Z" stroke-miterlimit="10"></path></g></g></svg>